Coordinates
version=1
nRows=13
nColumns=36
inDegrees=yes

Units are S.I. units (second, meters, Newtons, ...)
If the header above contains a line with 'inDegrees', this indicates whether rotational values are in degrees (yes) or radians (no).

endheader
time	pelvis_tilt	pelvis_list	pelvis_rotation	pelvis_tx	pelvis_ty	pelvis_tz	hip_flexion_r	hip_adduction_r	hip_rotation_r	knee_angle_r	knee_angle_r_beta	ankle_angle_r	subtalar_angle_r	mtp_angle_r	hip_flexion_l	hip_adduction_l	hip_rotation_l	knee_angle_l	knee_angle_l_beta	ankle_angle_l	subtalar_angle_l	mtp_angle_l	lumbar_extension	lumbar_bending	lumbar_rotation	arm_flex_r	arm_add_r	arm_rot_r	elbow_flex_r	pro_sup_r	arm_flex_l	arm_add_l	arm_rot_l	elbow_flex_l	pro_sup_l
      2.88333330	    -27.79660810	      2.27499183	     -2.97764589	      0.71256614	      0.77975753	      0.36301655	     66.74629086	    -11.55080847	     -2.56098933	     66.55835136	      1.16166238	     26.41516307	     -3.94669162	     -7.49999987	     66.04233441	    -10.58119605	     -1.98485910	     65.80011212	      1.14842860	     23.09098106	     -8.90518356	     -7.49999987	     -9.96062386	     -0.97393323	      1.05948552	     72.52631163	    -25.74645481	      8.06864330	    140.30969582	     91.85085031	     61.80683417	    -34.67787652	     -0.67560648	    142.65354716	     78.92255025
      2.90000000	    -26.56897176	      2.09867591	     -3.18599760	      0.71418172	      0.81545924	      0.36443110	     61.49666009	    -10.92085858	     -3.57341744	     60.97817251	      1.06426988	     24.04397836	     -4.23067395	     -7.49999987	     61.07295122	    -10.95954663	     -2.99174504	     59.98746292	      1.04697874	     20.13601522	     -8.30874362	     -7.49999987	     -7.75407778	     -1.16745969	      1.33008628	     71.15694743	    -27.81670258	      8.18872263	    139.08866459	     87.92883268	     60.68479439	    -36.21140116	     -0.72256628	    142.68489129	     76.27118985
      2.91666670	    -24.78879439	      1.68109433	     -3.38257585	      0.72476694	      0.85197628	      0.36248874	     55.20896495	    -10.14497974	     -4.84552067	     54.03374797	      0.94306681	     20.36248025	     -5.33381848	     -7.49999987	     55.11884500	    -11.34921482	     -4.09375197	     53.15312054	      0.92769696	     16.02379132	     -8.06874067	     -7.49999987	     -6.39094981	     -0.97819351	      1.87613764	     70.24071767	    -29.75281040	      7.31424861	    137.85832285	     86.20594553	     59.01422114	    -36.88242320	     -0.49833589	    143.00108372	     75.75873849
      2.93333330	    -23.10696673	      1.35713285	     -3.53240007	      0.72622411	      0.87450644	      0.36282734	     48.83340684	     -9.46860906	     -6.36057185	     46.43944084	      0.81052115	     16.10715785	     -5.56240156	     -7.49999987	     49.01612072	    -11.58149724	     -5.53088604	     45.49363877	      0.79401379	     11.05547022	     -7.57807509	     -7.49999987	     -4.61179933	     -0.73479350	      2.00267815	     71.13624850	    -31.87462109	      7.95647232	    135.41786402	     83.82149011	     59.97139135	    -37.90433168	      0.16246999	    142.01941487	     74.53952419
      2.95000000	    -21.76649313	      1.08406952	     -3.79093967	      0.73402931	      0.90946221	      0.36440154	     43.17363135	     -8.82031433	     -7.94011065	     38.63408652	      0.67429201	     11.39371550	     -4.97318882	     -7.49999987	     43.11684561	    -11.87771738	     -7.56856203	     37.33702893	      0.65165409	      5.76353413	     -6.07586991	     -7.49999987	     -3.03770312	     -0.67372138	      2.43258266	     70.82775569	    -34.32509771	      7.53638615	    135.93655093	     83.63963806	     57.01660897	    -39.54938888	     -5.57753389	    146.67071760	     75.19136138
      2.96666670	    -20.15283729	      0.42294973	     -3.75722696	      0.74275605	      0.94345702	      0.36701891	     36.34245777	     -7.74639591	    -10.27269987	     29.30876296	      0.51153441	      5.71570706	     -3.32073537	     -7.49999987	     36.85805398	    -12.16846767	     -9.68901165	     28.76334701	      0.50201511	     -1.14553121	     -4.55009530	     -7.49999987	     -2.15253053	     -0.20582594	      2.96330139	     70.60716185	    -36.69611249	      7.01519761	    136.07587970	     83.13132209	     58.17906914	    -39.24819921	     -6.84832136	    147.50826985	     74.73317241
      2.98333330	    -18.10997656	     -0.27008423	     -3.62626760	      0.74981581	      0.97886013	      0.36785627	     28.43812789	     -6.26733207	    -12.80671995	     18.24978173	      0.31851878	     -1.62250763	     -0.52817376	     -7.49999987	     28.83133501	    -12.02755664	    -13.04959942	     17.49617052	      0.30536578	     -9.98638430	     -1.62001823	     -7.49999987	     -3.34068677	     -0.51998370	      1.36762553	     73.75929422	    -37.95205673	      6.41843114	    132.81266402	     82.94810022	     73.94509574	    -27.00661931	      5.26890981	    138.46848177	     76.35004207
      3.00000000	    -16.47944733	     -0.00406209	     -6.91791886	      0.75700934	      1.03243461	      0.37188767	     23.96600723	     -4.54734850	    -13.62903563	     10.85068061	      0.18938010	    -12.48161196	      0.19214033	     -7.49999987	     21.17563972	    -11.75690709	    -14.85625781	      8.32431353	      0.14528668	    -15.69711190	      1.70831979	     -7.49999987	     -2.99642006	     -2.73040301	    -19.31628429	     64.28601980	    -21.36980661	     11.79302318	    130.33620511	     83.41163380	     79.39063220	    -35.16591285	     17.29906901	    126.96202215	     74.66014463
      3.01666670	    -15.66776872	      0.47626667	     -9.43209309	      0.76712097	      1.07394038	      0.37468894	     21.00776940	     -3.49713479	    -14.57334221	      5.45211105	      0.09515729	    -20.74179339	      1.39493845	     -7.49999987	     16.57732304	    -11.41776367	    -15.79183154	      3.07130781	      0.05360443	    -18.60483052	      2.93401669	     -7.49999987	     -3.62680737	     -8.02779043	    -37.19500909	     29.72550588	    -29.28232765	      6.66230703	    149.13973930	     64.15168589	     80.50840071	    -47.81132705	     27.96909283	    119.02826972	     45.98966931
      3.03333330	    -15.35562330	      0.92137692	    -12.40160478	      0.76025994	      1.09270376	      0.37430530	     20.92025990	     -2.75298157	    -14.58055421	      4.24676218	      0.07411998	    -25.01300008	      2.14300259	     -7.49999987	     14.30947903	    -11.48014871	    -16.46971786	      1.32666826	      0.02315473	    -18.74161959	      2.37923551	     -7.49999987	     -2.55755241	     -7.97975629	    -51.60962165	     12.83945066	    -40.40032196	      0.32618031	    149.77131098	     72.68979684	     69.34564078	    -67.89699087	     14.26467136	    122.52933246	     38.74186982
      3.05000000	    -14.88911465	      1.32098505	    -15.19868934	      0.76383050	      1.11318705	      0.37652841	     20.50380152	     -2.18389348	    -14.76027614	      4.07459195	      0.07111505	    -28.00102879	      2.53257486	     -7.49999987	     12.44232641	    -11.46035117	    -16.60631086	      0.76000479	      0.01326459	    -17.92758831	      1.37932432	     -7.49999987	     -0.88999304	     -6.91904090	    -58.51737961	      6.39452998	    -48.81250083	    -14.08050136	    149.80628792	     69.18850852	     30.47082496	    -77.63895647	    -27.14724665	    122.82215032	     30.84520138
      3.06666670	    -14.05997846	      1.49846903	    -17.75713037	      0.75832442	      1.13606693	      0.38086315	     19.88434142	     -1.70268405	    -14.14315393	      4.75352040	      0.08296458	    -28.19653071	      3.33793326	     -7.49999987	     10.50897485	    -11.43189093	    -16.43815638	      0.66293046	      0.01157032	    -17.10519617	      0.54134103	     -7.49999987	     -3.73572522	      1.57160392	    -39.71909879	    -30.77163009	    -47.60301570	   -212.97543800	    149.59018649	    111.70105175	     56.41874233	    -61.79037147	     -7.22390016	    115.53689762	     27.63421333
      3.08333330	    -13.50104748	      1.60242659	    -20.12652204	      0.75738301	      1.15025190	      0.38123135	     19.65330031	     -1.32309782	    -12.96113902	      6.06037229	      0.10577345	    -28.16679465	      3.75608789	     -7.49999987	      9.32328835	    -11.39268705	    -16.30275185	      0.83398281	      0.01455575	    -17.01536077	     -0.75973094	     -7.49999987	     -2.49667304	      1.68022653	    -43.65773376	    -23.56632892	    -53.13122980	   -204.91730333	    149.53022100	    112.97131207	     39.86165398	    -65.78122678	    -24.90136477	    113.82114924	     25.37552326
